# xmcd CD database file
#
# Track frame offsets:
#	150
#	15940
#	38900
#	60790
#	76725
#	97657
#	112475
#	139685
#	157382
#	174010
#	187705
#	196852
#	213282
#	238735
#	253342
#
# Disc length: 3769 seconds
#
# Revision: 0
# Processed by: cddbd v1.5.2PL0 Copyright (c) Steve Scherf et al.
# Submitted via: jetAudio 7
#
DISCID=b70eb70f
DTITLE=Billy Joel
DYEAR=1900
DGENRE=Pop
TTITLE0=Movin' out (Anthony's Song)
TTITLE1=The Stranger
TTITLE2=Just the way You are
TTITLE3=Vienna
TTITLE4=Say Goodbye to Hollywood
TTITLE5=Summer, Highland Falls
TTITLE6=New York State of Mind
TTITLE7=James
TTITLE8=Los Angelenos
TTITLE9=Root Beer Rag
TTITLE10=Souvenir
TTITLE11=The Mexican Connection
TTITLE12=Piano Man
TTITLE13=Worse comes to Worst
TTITLE14=Everybody has a Dream
EXTD=
EXTT0=
EXTT1=
EXTT2=
EXTT3=
EXTT4=
EXTT5=
EXTT6=
EXTT7=
EXTT8=
EXTT9=
EXTT10=
EXTT11=
EXTT12=
EXTT13=
EXTT14=
PLAYORDER=
